<svg version="1.1" id="Layer_1" xmlns="http://www.w3.org/2000/svg" xmlns:xlink="http://www.w3.org/1999/xlink" x="0px" y="0px" viewBox="0 0 500 500" style="width: 144px;" xml:space="preserve" data-imageid="profiling-80-13ce3" imageName="Profiling" class="illustrations_image">
<style type="text/css">
	.st0_profiling-80-13ce3{fill:#8555F6;}
	.st1_profiling-80-13ce3{fill:url(#SVGID_1_);}
	.st2_profiling-80-13ce3{fill:url(#SVGID_00000078765774937821820370000000569165101399851708_);}
	.st3_profiling-80-13ce3{fill:#68E1FD;}
	.st4_profiling-80-13ce3{opacity:0.46;}
	.st5_profiling-80-13ce3{fill:#606060;}
	.st6_profiling-80-13ce3{fill:#FFFFFF;}
	.st7_profiling-80-13ce3{fill:#124577;}
	.st8_profiling-80-13ce3{opacity:0.25;}
	.st9_profiling-80-13ce3{fill:none;}
	.st10_profiling-80-13ce3{fill:#F25555;}
	.st11_profiling-80-13ce3{fill:#FF6161;}
	.st12_profiling-80-13ce3{fill:#F7931E;}
	.st13_profiling-80-13ce3{opacity:0.7;fill:#124577;enable-background:new    ;}
	.st14_profiling-80-13ce3{fill:#42210B;}
</style>
<g id="background_profiling-80-13ce3">
	<path class="st0_profiling-80-13ce3" d="M244,396L20.1,263.6c-7.1-4-13.2-10.6-6.3-14.9l224.8-129.5c3.4-2.1,8.5-3.5,11.9-1.5l235.1,136.4&#10;&#9;&#9;c7.1,4.1,8.4,15.7,1.3,19.8L273.5,395.8C264.4,401.1,253.2,401.2,244,396z"/>
	
		<linearGradient id="SVGID_1_-profiling-80-13ce3" gradientUnits="userSpaceOnUse" x1="131.8078" y1="222.4884" x2="228.7778" y2="287.5284" gradientTransform="matrix(1 0 0 -1 0 502)">
		<stop offset="0" style="stop-color:#8555F6"/>
		<stop offset="1" style="stop-color:#3E38A5"/>
	</linearGradient>
	<path class="st1_profiling-80-13ce3" d="M124.7,312.5c1,0.6,55.3-31.8,55.3-30.9l95-60.4l-26-11.8L72.5,281.6C79.1,284.2,118.6,308.8,124.7,312.5z"/>
	
		<linearGradient id="SVGID_00000065763634252630218950000008435644827358381983_-profiling-80-13ce3" gradientUnits="userSpaceOnUse" x1="248.8483" y1="133.0225" x2="307.0583" y2="172.0625" gradientTransform="matrix(1 0 0 -1 0 502)">
		<stop offset="0" style="stop-color:#8555F6"/>
		<stop offset="1" style="stop-color:#3E38A5"/>
	</linearGradient>
	<path style="fill:url(#SVGID_00000065763634252630218950000008435644827358381983_);" d="M235.9,385.6c0.9,0.5,1.4,1.5,1.4,2.5&#10;&#9;&#9;l93.9-59.6l-24.9-12.6l-89.1,60C223.6,378.6,229.9,381.9,235.9,385.6z"/>
</g>
<g id="screen_profiling-80-13ce3">
	<path class="st3_profiling-80-13ce3 targetColor" d="M159.8,69.6c-15.6,9.2-54.1,32.1-65.7,38.8c-2,1.2-3.2,3.3-3.2,5.6v158.3c-0.2,3.2,3.4,6.2,6.4,4.5l64.8-36.9&#10;&#9;&#9;c2.6-1.5,4.3-3.6,4.3-6.6V73.4c0-2.4-2-4.4-4.4-4.4C161.2,69,160.4,69.2,159.8,69.6z" style="fill: rgb(255, 215, 2);"/>
	<g class="st4_profiling-80-13ce3">
		<path class="st5_profiling-80-13ce3" d="M159.8,69.6c-15.6,9.2-54.1,32.1-65.7,38.8c-2,1.2-3.2,3.3-3.2,5.6v158.3c-0.2,3.2,3.4,6.2,6.4,4.5l64.8-36.9&#10;&#9;&#9;&#9;c2.6-1.5,4.3-3.6,4.3-6.6V73.4c0-2.4-2-4.4-4.4-4.4C161.2,69,160.4,69.2,159.8,69.6z"/>
	</g>
	
		<ellipse transform="matrix(0.2859 -0.9583 0.9583 0.2859 -39.3613 227.9072)" class="st6_profiling-80-13ce3" cx="133.2" cy="140.4" rx="32.4" ry="21.8"/>
	
		<ellipse transform="matrix(0.2171 -0.9761 0.9761 0.2171 -24.6397 235.8949)" class="st7_profiling-80-13ce3" cx="134.7" cy="133.3" rx="14.3" ry="9.2"/>
	<path class="st7_profiling-80-13ce3" d="M117.9,167.9c0,0,4.2-13.6,16.8-18.3c13.1-4.9,15.9,3.8,15.9,3.8s-2.6,13.2-15.9,18.2S117.9,167.9,117.9,167.9&#10;&#9;&#9;z"/>
	<path class="st3_profiling-80-13ce3 targetColor" d="M217.8,64.2c-15.6,9.2-54.1,32.1-65.7,38.8c-2,1.2-3.2,3.3-3.2,5.6v158.3c-0.2,3.2,3.4,6.2,6.4,4.5l64.8-36.9&#10;&#9;&#9;c2.6-1.5,4.3-3.6,4.3-6.6V68c0-2.4-1.9-4.4-4.3-4.4C219.3,63.6,218.5,63.8,217.8,64.2z" style="fill: rgb(255, 215, 2);"/>
	<g class="st8_profiling-80-13ce3">
		<path class="st5_profiling-80-13ce3" d="M217.8,64.2c-15.6,9.2-54.1,32.1-65.7,38.8c-2,1.2-3.2,3.3-3.2,5.6v158.3c-0.2,3.2,3.4,6.2,6.4,4.5l64.8-36.9&#10;&#9;&#9;&#9;c2.6-1.5,4.3-3.6,4.3-6.6V68c0-2.4-1.9-4.4-4.3-4.4C219.3,63.6,218.5,63.8,217.8,64.2z"/>
	</g>
	
		<ellipse transform="matrix(0.2859 -0.9583 0.9583 0.2859 15.1741 276.1922)" class="st6_profiling-80-13ce3" cx="192.9" cy="127.9" rx="32.4" ry="21.8"/>
	
		<ellipse transform="matrix(0.2171 -0.9761 0.9761 0.2171 34.201 284.3811)" class="st7_profiling-80-13ce3" cx="194.4" cy="120.9" rx="14.3" ry="9.2"/>
	<path class="st7_profiling-80-13ce3" d="M177.6,155.5c0,0,4.1-13.6,16.8-18.3c13.1-4.9,15.9,3.8,15.9,3.8s-2.6,13.2-15.9,18.2S177.6,155.5,177.6,155.5&#10;&#9;&#9;z"/>
	<path class="st3_profiling-80-13ce3 targetColor" d="M270,52.2c-15.6,9.2-54.1,32.1-65.7,38.8c-2,1.2-3.2,3.3-3.2,5.6v158.3c-0.2,3.2,3.4,6.2,6.4,4.5l64.8-36.9&#10;&#9;&#9;c2.6-1.5,4.3-3.6,4.3-6.6V55.9c0-2.4-2-4.4-4.4-4.4C271.4,51.5,270.7,51.8,270,52.2z" style="fill: rgb(255, 215, 2);"/>
	
		<ellipse transform="matrix(0.2859 -0.9583 0.9583 0.2859 58.2563 322.0751)" class="st6_profiling-80-13ce3" cx="245.2" cy="122" rx="32.4" ry="21.8"/>
	<ellipse transform="matrix(0.2171 -0.9761 0.9761 0.2171 81 330.7774)" class="st7_profiling-80-13ce3" cx="246.7" cy="114.9" rx="14.3" ry="9.2"/>
	<path class="st7_profiling-80-13ce3" d="M229.9,149.5c0,0,4.1-13.6,16.8-18.3c13.1-4.8,15.9,3.8,15.9,3.8s-2.6,13.2-15.9,18.2S229.9,149.5,229.9,149.5&#10;&#9;&#9;z"/>
	<path class="st6_profiling-80-13ce3" d="M212.7,182.1v10.4c0,1.9,1.5,3.4,3.4,3.4c0.5,0,0.9-0.1,1.3-0.3l50.4-21.7c1.2-0.5,2-1.8,2-3.1v-10&#10;&#9;&#9;c0-1.9-1.5-3.4-3.4-3.4c-0.5,0-0.9,0.1-1.3,0.3L214.8,179C213.5,179.5,212.7,180.8,212.7,182.1z"/>
	<path class="st6_profiling-80-13ce3" d="M212.8,207.4v10.4c0,1.9,1.5,3.4,3.4,3.4c0.5,0,0.9-0.1,1.3-0.3l50.4-21.7c1.2-0.5,2-1.8,2-3.1v-10&#10;&#9;&#9;c0-1.9-1.6-3.3-3.4-3.3c-0.4,0-0.8,0.1-1.2,0.2l-50.5,21.4C213.6,204.9,212.8,206.1,212.8,207.4z"/>
	<line class="st9_profiling-80-13ce3" x1="215.3" y1="182.7" x2="266.6" y2="162.1"/>
	
		<rect x="213.3" y="171.8" transform="matrix(0.9278 -0.373 0.373 0.9278 -46.9119 102.3134)" class="st10_profiling-80-13ce3" width="55.3" height="1.2"/>
	<line class="st9_profiling-80-13ce3" x1="215.7" y1="187" x2="267" y2="166.3"/>
	
		<rect x="213.7" y="176" transform="matrix(0.9278 -0.373 0.373 0.9278 -48.4739 102.7827)" class="st10_profiling-80-13ce3" width="55.3" height="1.2"/>
</g>
<g id="character_profiling-80-13ce3">
	<path class="st11_profiling-80-13ce3" d="M319.3,304.6c0,0.3-6.8,14.4-8.2,15.2s-5.7-2.1-7.2-0.6s-3.6,4.8-0.3,6.3s12.9,3.2,14.7,2.5&#10;&#9;&#9;c1.7-0.9,3.4-1.9,4.9-3.1c0,0,1.2-7.6,2.2-6.5s0.3,9.3,1,9.6c1,0.1,1.9,0,2.9-0.3l-0.1-24.2"/>
	<path class="st11_profiling-80-13ce3" d="M303.9,324.2c0,0.2-5,11.7-6.2,12.4s-4.6-1.5-5.8-0.2s-2.7,4-0.1,5.1s10.5,2.2,11.9,1.6&#10;&#9;&#9;c1.4-0.7,2.7-1.6,3.9-2.6c0,0,0.7-6.1,1.6-5.3s0.5,7.5,1.1,7.6c0.8,0,1.6-0.1,2.3-0.3l-0.8-19.4"/>
	<path class="st3_profiling-80-13ce3 targetColor" d="M295.4,193.4c0,0-20,102.2-18.3,126c0,0,4,15.8,38.3,10.5c0,0,3-11.9,1.6-32s-5-104.5-5-104.5L295.4,193.4z" style="fill: rgb(255, 215, 2);"/>
	<path class="st3_profiling-80-13ce3 targetColor" d="M299,314.2l5.2-122l20.6-1.9c0,0,9,31.4,7,46.6s2.3,35.3,3.3,45.8c0.9,9.5,1.2,25.8-2,33.1&#10;&#9;&#9;C322.1,319.1,310.1,318,299,314.2z" style="fill: rgb(255, 215, 2);"/>
	<path class="st6_profiling-80-13ce3" d="M316.8,324.1c1.6-7.6,2.8-15.4,3.5-23.1c0.3-3.8,0.3-7.6,0.1-11.4c-0.3-3.9-0.9-7.8-1.7-11.7&#10;&#9;&#9;c-1.2-6.9-1.5-14-0.9-21c0.5-7.2,1.6-14.3,2.3-21.5c0.8-8.1,1-16.3-0.8-24.2c-0.2-1,1.4-1.5,1.6-0.4c3.2,14.3,0.1,28.9-1.2,43.2&#10;&#9;&#9;c-0.8,7.4-0.7,14.9,0.4,22.3c0.6,3.6,1.3,7.2,1.7,10.8c0.4,3.9,0.5,7.8,0.3,11.7c-0.4,8.7-2,17.3-3.6,25.8&#10;&#9;&#9;C318.2,325.6,316.6,325.2,316.8,324.1z"/>
	<polyline class="st7_profiling-80-13ce3" points="273.1,169.2 280.1,166.2 274,129.1 254,138.5 256.3,155.9 259.3,173.8 273.1,169.2 270.9,166.4 &#9;"/>
	<path class="st11_profiling-80-13ce3" d="M309,140.2c-2,0.7-10.4,0.7-13.1,8.6c-1.9,5.9-3.5,11.8-4.9,17.9l-20.3-11.5c0,0-1.2,17.9,1.2,22.4&#10;&#9;&#9;s14.2,14.5,23.9,8.8c0,0-0.9,7,0,9.1s23.2,4.7,28.4-2s1.6-38.3,1.6-38.3"/>
	<path class="st12_profiling-80-13ce3" d="M271,164.1c0.3-2.6,0.4-5.1,0.7-7.7c-0.7-0.5-1.3-1.2-1.9-1.8c-0.7-0.7-1.4-1.5-2-2.3&#10;&#9;&#9;c-0.4-0.9-0.9-1.7-1.3-2.5l-0.5-1c-0.6-1.3-1.2-3.4-2.7-4c-1-0.4-2.2,0.1-2.6,1.1c-0.1,0.1-0.1,0.3-0.1,0.4c-0.3,2.3,3.7,7.2-1,7.1&#10;&#9;&#9;c-0.9,0-1.7,0-2.6,0.1c-1.8,0.2-3.4,1.1-2.7,3.1c0.1,0.3,0.2,0.6,0.4,0.8c-1.2,0.4-1.9,1.8-1.5,3c0,0.1,0,0.1,0.1,0.2&#10;&#9;&#9;c0.3,0.7,0.8,1.2,1.5,1.5c-0.5,0.6-0.6,1.5-0.1,2.2c0.4,0.5,1,0.9,1.6,1c0,0.3,0,0.7,0.1,1c0.6,1.6,2.7,2.1,4.1,2.4&#10;&#9;&#9;c3.3,0.4,6.6,0.5,9.9,0.3C270.5,167.2,270.8,165.6,271,164.1z"/>
	<path class="st13_profiling-80-13ce3" d="M303.5,165.1c0,4.1-0.7,8.1-1.9,12.1c-1,3.6-3.3,6.7-6.5,8.6c-0.6,0.4-0.1,1.4,0.6,1c3.2-1.9,5.6-4.9,6.7-8.4&#10;&#9;&#9;c1.4-4.3,2.2-8.7,2.2-13.2c0-0.3-0.3-0.5-0.7-0.5C303.8,164.6,303.6,164.8,303.5,165.1z"/>
	<path class="st10_profiling-80-13ce3" d="M318.8,138.1c-2.2-0.2-43.2-26.7-44.5-25.6s-5.9,15.1,0.2,20.1s42.5,25.3,42.5,25.3"/>
	<path class="st12_profiling-80-13ce3" d="M256.1,113.9c-1.4,2.4-0.4,4.9,1.1,7.2c0.2-0.1,0.4-0.1,0.6,0c1.8,0.6,3.6,1,5.5,1.3c1.5,0.3,3,0.5,4.5,0.6&#10;&#9;&#9;c1.5,0.1,3,0.5,4.4,1.1c0-2.6,0.2-5.1,0.6-7.7c-5.9-2.8-10.7-4.7-16-8.4c-0.6-0.4-2-1.8-2.6-1.6c-0.7,0.1-1.2,0.7-1.2,1.4&#10;&#9;&#9;c0,0.1,0,0.1,0,0.2c0.4,2.3,2.7,3.5,4.5,4.7C257.6,112.8,256.1,113.8,256.1,113.9z"/>
	<path class="st12_profiling-80-13ce3" d="M257.5,115.6c0.4-0.5-0.5-1-0.9-0.5c-0.3,0.4-0.5,0.9-0.7,1.4c-0.3,0.7-0.5,1.4-0.4,2.2c0,0.1,0,0.3,0.1,0.5&#10;&#9;&#9;l0,0c0,0.1,0,0.1,0.1,0.2c0.1,0.4,0.3,0.7,0.6,0.9c0.6,0.3,1.1-0.4,1.3-0.8c0.3-0.7,0.4-1.4,0.4-2.2c0-0.6,0.1-1.3-0.4-1.6&#10;&#9;&#9;L257.5,115.6z"/>
	<path class="st14_profiling-80-13ce3" d="M271.2,123.1c-1.4-0.8-3-1.2-4.6-1.1c-2.2,0.1-4.4,0.7-5.9-1.5c-0.9-1.3-0.9-2.8-2.1-3.8&#10;&#9;&#9;c-0.3-0.2-0.6-0.4-0.9-0.6c-0.2-0.2-0.5-0.3-0.6-0.4c-0.4-0.1-0.7-0.4-0.8-0.8c-0.1-0.6,0.2-1.1,0.7-1.3c0.1,0,0.2,0,0.3,0&#10;&#9;&#9;c0.4,0,0.8,0.2,1.2,0.4c0,0,0.1,0,0.1,0.1c0.7,0.2,1.4,0.5,2.1,0.8s1-0.6,0.5-0.9c-1.4-0.6-4.4-2.3-5.7-0.6c-0.4,0.4-0.5,1-0.3,1.6&#10;&#9;&#9;l0,0c-0.3,0.9-0.5,1.9-0.6,2.8c-0.2,0.7-0.1,1.4,0.1,2.1c0.4,0.8,1.2,1.2,2.1,1.1c0.1,0.2,0.1,0.4,0.2,0.6c0.7,1,2,1.2,3.1,0.6&#10;&#9;&#9;c0.2-0.1,0.3-0.2,0.2-0.4c0.5,0.5,1.1,0.9,1.8,1.2c1.2,0.3,2.4,0.4,3.6,0.2c1.7-0.2,3.4,0.2,4.9,1c0.3,0.1,0.6,0,0.7-0.2&#10;&#9;&#9;S271.5,123.2,271.2,123.1L271.2,123.1z M256.8,119.8L256.8,119.8c-0.5,0.4-1.1-0.7-1.2-0.9c0-0.5,0-1,0.1-1.5&#10;&#9;&#9;c0.1-0.5,0.2-1,0.3-1.5c0.4,0.3,0.8,0.6,1.2,0.9l0,0C257,117.8,256.8,118.8,256.8,119.8z M259.7,121.3c-1.3,0.6-1.9-0.5-1.8-1.7&#10;&#9;&#9;c0-0.7,0.1-1.4,0.2-2.1l0.2,0.2c0.9,1,0.9,2.4,1.7,3.5C259.9,121.2,259.8,121.2,259.7,121.3z"/>
	<path class="st12_profiling-80-13ce3" d="M297.1,115.1c-1.3,0.8-1.2,20.8,4.5,23.3c7.5,3.2,13.4-5.6,14.1-10.3S311.8,105.8,297.1,115.1z"/>
	<path class="st14_profiling-80-13ce3" d="M336.4,147.4c-0.9-0.8-2.1-1.6-2.6-2.7c-0.4-1.3-0.6-2.7-0.5-4.1c-0.2-3.4-1.1-7-4.2-8.8&#10;&#9;&#9;c-2-1.2-4.8-0.1-6.5-2c-1.9-2.1-1.3-5.1-1.5-7.6c-1.3-13.1-20.6-15.5-26.8-4.8c-2.1,3.5-1.1,8,2.3,10.3c0.9,0.6,2,1,3.1,1.2&#10;&#9;&#9;c1.6,0.3,3.2,0.2,3.9,2c1,2.6-0.9,5.3-1.8,7.6c-1.5,3.6-1.9,8.7,1.6,11.3c1.6,1.2,3.7,1.5,5.6,2.1c0.8,0.2,1.6,0.6,2.2,1.2&#10;&#9;&#9;c0.9,1.2,0.3,2.8,0.1,4.1c-0.1,0.7-0.1,1.4,0,2.1c-0.2,1.3,0.2,2.7,1.1,3.7c2.1,2.5,6,2.6,9,2.5c3.5-0.2,7-1,10.2-2.5&#10;&#9;&#9;c2.8-1.3,6.4-3.3,7.8-6.1C341.1,153.3,339.1,149.7,336.4,147.4z"/>
</g>
</svg>