<svg version="1.1" id="Layer_1" xmlns="http://www.w3.org/2000/svg" xmlns:xlink="http://www.w3.org/1999/xlink" x="0px" y="0px" viewBox="0 0 500 500" style="width: 144px;" xml:space="preserve" data-imageid="spotlight-40" imageName="Spotlight" class="illustrations_image">
<style type="text/css">
	.st0_spotlight-40{fill:#8EC2FE;}
	.st1_spotlight-40{fill:url(#SVGID_1_);}
	.st2_spotlight-40{fill:url(#SVGID_00000172422779162541881980000010483888558632733609_);}
	.st3_spotlight-40{opacity:0.5;fill:#8383EA;enable-background:new    ;}
	.st4_spotlight-40{fill:url(#SVGID_00000054262833568624805460000006661446223199980675_);}
	.st5_spotlight-40{fill:#E27825;}
	.st6_spotlight-40{fill:#FFE8BC;}
	.st7_spotlight-40{fill:#FDBA45;}
	.st8_spotlight-40{fill:#F26250;}
	.st9_spotlight-40{opacity:0.5;fill:#3B3B3B;enable-background:new    ;}
	.st10_spotlight-40{fill:#68E1FD;}
	.st11_spotlight-40{fill:#3B3B3B;}
	.st12_spotlight-40{fill:#FFFFFF;}
	.st13_spotlight-40{opacity:0.2;fill:#FFFFFF;enable-background:new    ;}
	.st14_spotlight-40{fill:url(#SVGID_00000093150723317767813280000000677659763809741733_);}
	.st15_spotlight-40{opacity:0.5;fill:#E27825;enable-background:new    ;}
	.st16_spotlight-40{fill:#8383EA;}
	.st17_spotlight-40{opacity:0.4;fill:#3B3B3B;enable-background:new    ;}
	.st18_spotlight-40{fill:#CFE217;}
</style>
<g id="background_spotlight-40">
	<path class="st0_spotlight-40" d="M242.5,442.7L15.4,308.4C8.2,304.4,2,297.7,9,293.3L237,162c3.4-2.1,8.6-3.5,12.1-1.5l238.4,138.3&#10;&#9;&#9;c7.2,4.2,8.5,15.9,1.3,20.1L272.5,442.4C263.2,447.8,251.8,447.9,242.5,442.7z"/>
	
		<linearGradient id="SVGID_1_-spotlight-40" gradientUnits="userSpaceOnUse" x1="305.5947" y1="139.0563" x2="356.3947" y2="204.2763" gradientTransform="matrix(1 0 0 -1 0 502)">
		<stop offset="1.000000e-02" style="stop-color:#8EC2FE"/>
		<stop offset="1" style="stop-color:#8383EA"/>
	</linearGradient>
	<polyline class="st1_spotlight-40" points="353.3,370.5 313.9,394.6 259.7,353.1 339.4,303.9 353.3,337.5 &#9;"/>
	
		<linearGradient id="SVGID_00000112629465955734186770000016745755314323152315_-spotlight-40" gradientUnits="userSpaceOnUse" x1="393.8585" y1="196.2912" x2="428.6885" y2="241.0012" gradientTransform="matrix(1 0 0 -1 0 502)">
		<stop offset="1.000000e-02" style="stop-color:#8EC2FE"/>
		<stop offset="1" style="stop-color:#8383EA"/>
	</linearGradient>
	<polyline style="fill:url(#SVGID_00000112629465955734186770000016745755314323152315_);" points="463.7,301.5 416.5,329.9 &#10;&#9;&#9;343.8,284.5 400.2,255.4 &#9;"/>
	<path class="st3_spotlight-40" d="M250,383.2l-36.6,20.9L162.1,374l35.8-20.5c1.1-0.6,2.5-0.6,3.6,0l48.6,28.8c0.3,0.1,0.3,0.5,0.2,0.7&#10;&#9;&#9;C250.1,383.1,250.1,383.2,250,383.2z"/>
	<path class="st3_spotlight-40" d="M269.6,411.4l-36.6,20.9l-51.3-30.1l35.8-20.5c1.1-0.6,2.5-0.6,3.6,0l48.6,28.8c0.3,0.1,0.4,0.5,0.2,0.7&#10;&#9;&#9;C269.8,411.2,269.7,411.3,269.6,411.4z"/>
	
		<linearGradient id="SVGID_00000083056181547945197700000003288529623458304439_-spotlight-40" gradientUnits="userSpaceOnUse" x1="49.3987" y1="178.6671" x2="83.4587" y2="201.0571" gradientTransform="matrix(1 0 0 -1 0 502)">
		<stop offset="1.000000e-02" style="stop-color:#8EC2FE"/>
		<stop offset="1" style="stop-color:#8383EA"/>
	</linearGradient>
	<path style="fill:url(#SVGID_00000083056181547945197700000003288529623458304439_);" d="M75.2,301.9l-35,18.1c0,0-1.9,2.2,11.1,10&#10;&#9;&#9;l35.6-21.9"/>
</g>
<g id="books_spotlight-40">
	<path class="st5_spotlight-40" d="M264.9,394.6c0.2,0,1.7-0.6,0.4-1.6c-0.9-0.7-1.8-1.3-2.7-1.8"/>
	<path class="st6_spotlight-40" d="M264.9,386.4c0,0-1.3,4.8,0,7.3l-17.6,10.4l-17.4,10.1v-7.5"/>
	<path class="st5_spotlight-40" d="M265.5,385.7c0,0.3-0.1,0.7-0.1,1l-35.5,20.1v7.5l35.4-20.7c0,0.3,0,0.6,0,0.9l-36.8,21.3v-10.2L265.5,385.7z"/>
	<path class="st7_spotlight-40" d="M265.2,385.8l-36.6,20.9l-51.3-30.1l35.8-20.5c1.1-0.6,2.5-0.6,3.6,0l48.6,28.8c0.3,0.1,0.3,0.5,0.2,0.7&#10;&#9;&#9;C265.4,385.7,265.3,385.7,265.2,385.8z"/>
	<path class="st5_spotlight-40" d="M228.5,415.7c0,0-51.3-30.2-51.1-30.4s0-8.7,0-8.7l51.3,30.1L228.5,415.7z"/>
	<path class="st7_spotlight-40" d="M265.3,384.9c0.3,0.2,0.5,0.6,0.5,0.9c0.1,0.6-0.6,0.9-0.8,1"/>
	<path class="st8_spotlight-40" d="M246.3,350.9c0.2,0,1.7-0.6,0.4-1.6c-0.9-0.7-1.8-1.3-2.7-1.8"/>
	<path class="st9_spotlight-40" d="M246.3,350.9c0.2,0,1.7-0.6,0.4-1.6c-0.9-0.7-1.8-1.3-2.7-1.8"/>
	<path class="st6_spotlight-40" d="M246.3,342.7c0,0-1.3,4.8,0,7.4l-17.6,10.3l-17.4,10.1v-7.4"/>
	<path class="st8_spotlight-40" d="M246.9,342l-0.1,1l-35.5,20.1v7.4l35.4-20.7c0,0.3,0,0.6,0,0.9L209.9,372v-10.1L246.9,342z"/>
	<path class="st9_spotlight-40" d="M246.9,342l-0.1,1l-35.5,20.1v7.4l35.4-20.7c0,0.3,0,0.6,0,0.9L209.9,372v-10.1L246.9,342z"/>
	<path class="st8_spotlight-40" d="M246.7,342.1l-36.6,20.9l-51.3-30.1l35.8-20.5c1.1-0.6,2.5-0.6,3.6,0l48.6,28.8c0.3,0.1,0.4,0.4,0.2,0.7&#10;&#9;&#9;C246.9,342,246.8,342.1,246.7,342.1z"/>
	<path class="st8_spotlight-40" d="M209.9,372c0,0-51.3-30.2-51.2-30.4s0-8.7,0-8.7l51.3,30.1L209.9,372z"/>
	<path class="st9_spotlight-40" d="M209.9,372c0,0-51.3-30.2-51.2-30.4s0-8.7,0-8.7l51.3,30.1L209.9,372z"/>
	<path class="st8_spotlight-40" d="M246.7,341.2c0.3,0.2,0.5,0.6,0.5,0.9c0.1,0.6-0.6,0.9-0.8,1.1"/>
</g>
<g id="screen_spotlight-40">
	<path class="st10_spotlight-40 targetColor" d="M456.9,301.1L391.1,265c-2.6-1.4-4.2-4.1-4.2-7.1V137.3c0-4.4,3.6-8.1,8-8.1c1.4,0,2.8,0.4,4.1,1.1l65.8,38&#10;&#9;&#9;c2.5,1.4,4,4.1,4,7V294c0.1,4.4-3.5,8-7.9,8.1C459.5,302.1,458.2,301.8,456.9,301.1z" style="fill: rgb(104, 225, 253);"/>
	<path class="st11_spotlight-40" d="M452.9,217.1V246c0,8.4-13,8.4-13,0v-28.9C439.9,208.7,452.9,208.7,452.9,217.1z"/>
	<path class="st8_spotlight-40" d="M435.2,187.5v46.6c0,8.4-13,8.4-13,0v-46.6C422.2,179.1,435.2,179.1,435.2,187.5z"/>
	<path class="st12_spotlight-40" d="M414.2,153.7v71.5c0,8.4-13,8.4-13,0v-71.5C401.2,145.3,414.2,145.3,414.2,153.7z"/>
	<path class="st12_spotlight-40" d="M430.4,254.1l16.1,8.5c2.3,1.2,0.3,4.7-2,3.5l-16.1-8.5C426.1,256.3,428.2,252.9,430.4,254.1z"/>
	<path class="st12_spotlight-40" d="M402.2,251.9c15,8,30.1,15.8,45.4,23.2c2.3,1.1,0.3,4.6-2,3.5c-15.3-7.4-30.4-15.2-45.4-23.2&#10;&#9;&#9;C397.9,254.2,399.9,250.7,402.2,251.9z"/>
</g>
<g id="light_spotlight-40">
	<path class="st8_spotlight-40" d="M137.3,140.1L120,118.5c0,0-13-12.7-25.7,0s-4.2,23.2-4.2,23.2l23.4,25.9"/>
	<path class="st11_spotlight-40" d="M118.6,147.6l25.3-13.4c0.6-0.3,1.4-0.1,1.8,0.5c0.2,0.3,0.2,0.7,0.1,1.1l-7.9,24.5c-0.3,1.1-1.1,2-2.1,2.5&#10;&#9;&#9;L110,176.5c-0.7,0.3-1.5,0.1-1.8-0.6c-0.2-0.3-0.2-0.7-0.1-1.1l8.5-24.9C116.9,149,117.6,148.2,118.6,147.6z"/>
	<path class="st11_spotlight-40" d="M120.5,148.8l25.3-13.4c0.6-0.3,1.4-0.1,1.8,0.5c0.2,0.3,0.2,0.7,0.1,1l-7.9,24.5c-0.4,1.1-1.1,2-2.1,2.5&#10;&#9;&#9;L112,177.6c-0.7,0.3-1.5,0.1-1.8-0.6c-0.2-0.3-0.2-0.7-0.1-1.1l8.5-24.9C118.9,150.1,119.6,149.3,120.5,148.8z"/>
	<path class="st13_spotlight-40" d="M120.5,148.8l25.3-13.4c0.6-0.3,1.4-0.1,1.8,0.5c0.2,0.3,0.2,0.7,0.1,1l-7.9,24.5c-0.4,1.1-1.1,2-2.1,2.5&#10;&#9;&#9;L112,177.6c-0.7,0.3-1.5,0.1-1.8-0.6c-0.2-0.3-0.2-0.7-0.1-1.1l8.5-24.9C118.9,150.1,119.6,149.3,120.5,148.8z"/>
	
		<ellipse transform="matrix(0.7308 -0.6826 0.6826 0.7308 -71.6845 130.8166)" class="st7_spotlight-40" cx="130" cy="156.3" rx="14.8" ry="6.5"/>
	<path class="st11_spotlight-40" d="M95.8,140l6.1,3.9v-27.9c0-1.1,0.6-2.2,1.6-2.7l20.7-11.5c0.8-0.5,1.9-0.2,2.4,0.7c0.2,0.3,0.2,0.6,0.2,0.9&#10;&#9;&#9;l0.1,24.6l5.3,6.1V94.2c0-1.1-1-2-2.1-1.9c-0.3,0-0.6,0.1-0.8,0.2l-32.3,17.9c-0.7,0.4-1.1,1.1-1.1,1.8L95.8,140z"/>
	
		<ellipse transform="matrix(0.9952 -9.810399e-02 9.810399e-02 0.9952 -13.1618 10.5207)" class="st11_spotlight-40" cx="100.4" cy="139.1" rx="4.9" ry="6.4"/>
	
		<ellipse transform="matrix(0.9952 -9.810399e-02 9.810399e-02 0.9952 -13.1821 10.3831)" class="st11_spotlight-40" cx="99" cy="139.2" rx="4.9" ry="6.4"/>
	
		<ellipse transform="matrix(0.9952 -9.810399e-02 9.810399e-02 0.9952 -13.1821 10.3831)" class="st13_spotlight-40" cx="99" cy="139.2" rx="4.9" ry="6.4"/>
	
		<linearGradient id="SVGID_00000026121061011078980520000005647884137889796775_-spotlight-40" gradientUnits="userSpaceOnUse" x1="118.2627" y1="262.9199" x2="382.9127" y2="262.9199" gradientTransform="matrix(1 0 0 -1 0 502)">
		<stop offset="0" style="stop-color:#FFE8BC"/>
		<stop offset="1" style="stop-color:#FFFFFF;stop-opacity:0"/>
	</linearGradient>
	<path style="fill:url(#SVGID_00000026121061011078980520000005647884137889796775_);" d="M356.7,181.7l-215.9-35.6&#10;&#9;&#9;c0,0-4.5-5-15.3,5.3s-6.4,14.9-6.4,14.9L292,333.2c18.9-16.3,34.8-36.5,46.9-57.8C355.4,246.4,357.8,214.1,356.7,181.7z"/>
</g>
<g id="character_1_spotlight-40">
	<path class="st5_spotlight-40" d="M339.4,303.9c0,0,13.6-0.5,15.8,3.1s3.7,13.8,7.2,14.3s4.5-8.2,5-14.1s-0.6-8.9-1.9-9.1s-11-3.9-11.5-5.6&#10;&#9;&#9;s11.9,0.2,11.9,0.2l-0.5-6l-29.2,1.6L339.4,303.9z"/>
	<path class="st7_spotlight-40" d="M301,311.1l47.7-0.1c0,0-2.7-18.2-9.5-27.2l-34.5-4.4"/>
	<path class="st15_spotlight-40" d="M301,311.1l47.7-0.1c0,0-2.7-18.2-9.5-27.2l-34.5-4.4"/>
	<path class="st5_spotlight-40" d="M341.7,348.3c0,0,5.9,6.6,4,10.9s-10.2,12.2-8.5,15.8s10.4-1.1,16.1-4.5s7.8-6.2,7.1-7.5s-3.5-12.6-2.2-14.1&#10;&#9;&#9;s7.4,11,7.4,11l3.3-6.8l-18.2-23.2L341.7,348.3z"/>
	<path class="st7_spotlight-40" d="M265.3,220.8c0,0-15.7,48.4-13.1,70.5s44.6,19.7,44.6,19.7l33.9,43.9c0,0,18.7-1.6,32.6-19.2&#10;&#9;&#9;c0,0-10.9-15.3-18.6-23s-28.6-34.8-29.5-43.1s-10.4-39-20.1-44.1"/>
	<path class="st5_spotlight-40" d="M297.8,311.3c-8-12.1-14.3-25.1-18.9-38.9c-1.3-3.9-2.5-7.9-3.4-11.9c-0.2-0.6-0.9-1-1.5-0.8&#10;&#9;&#9;c-0.6,0.2-0.9,0.7-0.8,1.3c3.5,14.2,8.9,28,16.1,40.8c2,3.6,4.2,7.1,6.5,10.6C296.5,313.6,298.6,312.5,297.8,311.3z"/>
	<path class="st10_spotlight-40 targetColor" d="M280.3,187c0,0-11.9-6.5-16.4,7.8s-4.3,14.9-5.7,15.9s-22.1,8.4-22.1,8.4l11.9,7.1c0,0,14.3-2.6,17.3-5.4&#10;&#9;&#9;c4.6-4.2,7.1-11.4,7.1-11.4" style="fill: rgb(104, 225, 253);"/>
	<path class="st16_spotlight-40" d="M337.7,200.1c1.1-2.8,2-5.7,3-8.6c1.3-4.1,2.8-8.4,3.2-12.8c-0.8-2-3.5-3.6-5.4-4c-2.4-0.6-4.9,0.4-7.3,0.4&#10;&#9;&#9;c-3.2-0.1-5.7-1.3-8.7-2.2c-3.1-0.8-6.3-0.6-9.3,0.4c-5.8,1.8-11.6,1.2-16.4-2.6c-2.7-2.2-4.8-3.9-8.3-4.8&#10;&#9;&#9;c-5.3-1.4-10.8-0.4-14.3,4.1c-3.1,4-3.8,9.3-0.5,13.4c1.7,2.1,4.2,3,6.7,3.7c2.3,0.7,4.5,2,6.9,2.5l0.3,0.1&#10;&#9;&#9;c2.2,0.4,4.5,0.2,6.8,0.9c2.8,0.8,5.4,2.2,8.2,3.2c3.7,1.3,7.2,0.8,11,0.3c4.8-0.6,7.4,0.9,11.1,3.6c0.2,0.2,0.4,0.3,0.7,0.5&#10;&#9;&#9;c2.6,1.6,5.7,2.4,8.8,2.3C335.2,200.5,336.4,200.3,337.7,200.1z"/>
	<path class="st6_spotlight-40" d="M335.3,225.2c1.5,0.8,3,1.7,4.6,2.4c2.9,0.2,5.8,0.3,8.7,0.3c1.2-0.2,2.4-0.2,3.7-0.1c0.8,0,1.5,0.8,1.4,1.6&#10;&#9;&#9;c0,0.1,0,0.3-0.1,0.4c-0.4,1.1-1.5,1.9-2.6,2c-1,0.2-1.9,0.3-2.9,0.5c2.7,1.5,5.4,2.7,8.3,3.8c1.8,0.7,0.9,3.6-0.9,2.9l-2-0.8&#10;&#9;&#9;c1.1,0.7,2.1,1.5,3.1,2.3c1.2,1,0.5,3.4-1.3,2.7c-2.3-0.9-4.6-2.1-6.8-3.4c1.3,1.1,2.7,2.1,4.1,3.1c1.6,1.1,0,3.7-1.6,2.5&#10;&#9;&#9;c-2-1.4-3.9-2.8-5.7-4.4c0.4,0.9,0.8,1.7,1.2,2.6c0.8,1.8-1.9,3.2-2.7,1.4s-1.5-3.4-2.4-5.1c-0.1,0-0.1-0.1-0.2-0.1&#10;&#9;&#9;c-4.7-2.6-9.3-5.2-13.9-8c-1.7-1,0-3.5,1.6-2.5l2.1,1.3c0.1-0.5,0.4-0.9,0.8-1.1c-0.4-0.7-0.2-1.6,0.5-2.1c0.2-0.1,0.5-0.2,0.8-0.2&#10;&#9;&#9;c-0.4-0.8-0.1-1.7,0.7-2.1C334.3,224.9,334.8,224.9,335.3,225.2z"/>
	<path class="st11_spotlight-40" d="M347.2,233.8c-1.8,1.7-4,3.4-6.6,2.7c-0.5-0.1-0.3-1,0.2-0.8c2.3,0.6,4.2-1,5.8-2.4&#10;&#9;&#9;C347,232.8,347.6,233.4,347.2,233.8z"/>
	<path class="st11_spotlight-40" d="M348.9,235.7c2.2,1,4.5,2,6.9,2.7c0.4,0.1,0.2,0.8-0.1,0.6c-2.4-0.8-4.7-1.7-7-2.8&#10;&#9;&#9;C348.2,236.1,348.5,235.5,348.9,235.7z"/>
	<path class="st11_spotlight-40" d="M347.3,238.6c2.5,1.7,5.2,3.1,8.1,4.1c0.4,0.1,0.2,0.8-0.1,0.6c-2.9-1-5.7-2.4-8.3-4.2&#10;&#9;&#9;C346.7,239,347,238.4,347.3,238.6z"/>
	<path class="st11_spotlight-40" d="M344.1,240.1c1.9,1.6,3.9,3.1,6.1,4.3c0.4,0.2,0.1,0.8-0.3,0.6c-2.2-1.3-4.3-2.7-6.2-4.4&#10;&#9;&#9;C343.4,240.3,343.8,239.8,344.1,240.1z"/>
	<path class="st10_spotlight-40 targetColor" d="M283.9,187.4l-2.3-0.5c-1.4,0-2.8-0.2-4.2-0.4c-2.4,0-4.8,0.7-6.9,2c-4.5,3.2-5,10.9-5.3,15.9&#10;&#9;&#9;c-0.2,2.4-0.3,4.9-0.4,7.4c0.1,2.4,0.2,5.3,0.4,8.8c0,0.1,0,0.1,0,0.1c0.2,0.2,12.5,12.8,31.5,6.1c0,0-1.2-27.5-4.1-36.1&#10;&#9;&#9;C289.9,189.4,287,188.2,283.9,187.4z" style="fill: rgb(104, 225, 253);"/>
	<path class="st10_spotlight-40 targetColor" d="M292.4,190.7c0,0,20,25.4,47.8,34c0,0-1.8,10.2-6.2,14.1c0,0-37.7-17.1-46.4-32.3" style="fill: rgb(104, 225, 253);"/>
	<path class="st6_spotlight-40" d="M274.3,174.7c0,0-3.6,10.5,3.1,15.2s15.8-5.2,13.3-14.5S278.6,165.7,274.3,174.7z"/>
	<path class="st16_spotlight-40" d="M291.6,188.5c-1.1,0.2-2.3-0.1-3.1-0.9c-1-1-0.9-2.4-0.9-3.7c0.1-1.7-0.7-3.4-2.2-4.3c-1.8-1.2-4-1.5-5.6-3&#10;&#9;&#9;c-0.2-0.1-0.3-0.3-0.5-0.5c0.2,0.2,0.4,0.4,0.7,0.5c2.6,1.6,6.4,2,7.6,2.6s-0.7,5.4,1.4,7.5s7.3-11,4.3-14.6s-12.7-7.8-17-1.8&#10;&#9;&#9;c0.1,0.5,0.3,1.1,0.4,1.6c0.1,1.6,0.7,3.1,1.7,4.4c1.6,2,3.9,2.4,6,3.6c1.4,0.7,2.3,2,2.4,3.5c0.1,1.2-0.1,2.5,0.4,3.7&#10;&#9;&#9;c0.8,1.7,2.6,2.5,4.4,2.1C292.2,189,292,188.4,291.6,188.5z"/>
	<polyline class="st16_spotlight-40" points="269.6,257.3 291.1,244.7 252.9,219.7 232.5,227.8 &#9;"/>
	<polyline class="st17_spotlight-40" points="269.6,257.3 291.1,244.7 252.9,219.7 232.5,227.8 &#9;"/>
	<path class="st16_spotlight-40" d="M269.6,255.1c0.4-1.6-10.4-31.8-10.4-31.8L215,198.2l13.5,34.4l41.1,24.7L269.6,255.1z"/>
	
		<ellipse transform="matrix(0.9035 -0.4286 0.4286 0.9035 -74.8937 125.9861)" class="st0_spotlight-40" cx="242.3" cy="229.3" rx="2.6" ry="5.2"/>
	<path class="st9_spotlight-40" d="M267.4,195.6c-1.2,8.2-1.9,16.5-2.1,24.7c0,0.3,0.3,0.6,0.6,0.6s0.6-0.3,0.6-0.6c0.2-8.2,0.9-16.3,2.1-24.4&#10;&#9;&#9;C268.7,195.1,267.5,194.8,267.4,195.6z"/>
	<polygon class="st9_spotlight-40" points="296.2,216 291.8,211.9 296.9,226.9 &#9;"/>
	<path class="st6_spotlight-40" d="M228,228.7c-0.1-0.1-0.2-0.2-0.3-0.3c0.1-0.2,0.2-0.4,0.2-0.6c0-0.1,0.1-0.1,0.1-0.2c0.4-0.8-0.2-1.8-0.7-2.5&#10;&#9;&#9;c0.2-0.1,0.4-0.3,0.5-0.6c0.2-0.9-0.2-1.8-0.9-2.4l0,0c0.4-0.9-0.6-1.7-1.1-2.2c-0.6-0.5-1.3-0.9-2-1.2c-0.2-1-0.4-2-0.7-2.9&#10;&#9;&#9;c-0.2-0.7-0.8-1.3-1.5-1s-0.7,1.1-0.6,1.7c0.2,0.9,0.4,1.7,0.7,2.5c-0.6,0.3-0.9,1.1-0.6,1.7c0,0,0,0,0,0c0.2,0.4,0.5,0.7,0.8,1&#10;&#9;&#9;c-0.5,0.4-0.7,1.1-0.5,1.7c0.2,0.5,0.5,0.9,1,1.1c-0.1,0.1-0.2,0.2-0.2,0.3c-0.3,0.5-0.1,1.2,0.4,1.5c0.3,0.3,0.6,0.5,1,0.7&#10;&#9;&#9;c0,0.1-0.1,0.1-0.1,0.2c-0.2,0.6,0.2,1.2,0.6,1.7c0.5,0.6,1.1,1,1.7,1.4c0.7,0.5,1.4,0.8,2.2,1c0.3,0.1,0.6-0.1,0.8-0.3&#10;&#9;&#9;C229.4,230.3,228.6,229.3,228,228.7z"/>
</g>
<g id="plant_spotlight-40">
	<path class="st10_spotlight-40 targetColor" d="M66.5,278.5c-1.3,0.2,5,24.3,9.3,28.8s10,3.3,13.4-1.7s6.3-25.5,6.3-25.5S98.1,274.7,66.5,278.5z" style="fill: rgb(104, 225, 253);"/>
	<ellipse class="st8_spotlight-40" cx="81" cy="278.9" rx="14.6" ry="6.9"/>
	<path class="st18_spotlight-40" d="M65.1,259c3.5,4-0.1,7.2,0.1,13.5s11.5,6.9,11.5,6.9c-0.6-5.2,8.6-8.9,8.2-14.8s-8.4-2.7-5.5-9.3&#10;&#9;&#9;s1.9-15-2.8-18.1c-3.5-2.3-7.4-7.4-9.2-9.9c0,0.7,0,1.4,0,2.1c0.4,3.9-1.3,8.1-3.2,11.2c-1.8,2.9-4.5,5.2-6,8.3&#10;&#9;&#9;c-0.1,0.3-0.3,0.7-0.4,1C56.3,255.1,62,255.5,65.1,259z"/>
	<path class="st11_spotlight-40" d="M67.3,229.9c0,0.4,0,0.7-0.1,1c0.9,1.4,1.5,2.9,2,4.5c0.9,3.9-1.3,7.8-0.4,11.7c0.7,3.4,3.3,5.9,4.6,9.1&#10;&#9;&#9;c1.6,3.9-0.1,7.5-0.8,11.4c-0.8,4.4,1.2,8.1,3.4,11.8c0.2,0.3,0.7,0,0.5-0.3c-1.2-1.8-2.2-3.7-2.9-5.7c-0.7-2-0.8-4.2-0.3-6.3&#10;&#9;&#9;c0.7-3.5,2.1-6.9,0.9-10.4c-1.1-3.2-3.7-5.8-4.7-9.1c-1.2-4,1.1-8,0.3-12c-0.5-2-1.4-3.9-2.5-5.6L67.3,229.9z"/>
	<path class="st18_spotlight-40" d="M102.2,250.6c3.7-1.6,7.5-7,4.8-10.2s-2-8-2-8c-0.6,1.5-1.8,2.7-3.2,3.3c-7.7,2.6-8.3,7-8.5,10.4&#10;&#9;&#9;s3.9,10.7-8.3,14.6s-2,18.7-2,18.7l4.7,0.9l0,0c3.4-2.1,7-3.8,10.7-5.1c7.3-2.7,4.6-9.2,1.4-12.9S98.4,252.2,102.2,250.6z"/>
	<path class="st11_spotlight-40" d="M104.6,233.4c-1.9,2.8-2.3,6.2-3.2,9.4c-1,3.5-3.3,6.1-5.1,9.2c-0.9,1.4-1.5,3-1.8,4.6&#10;&#9;&#9;c-0.3,1.8-0.4,3.6-0.6,5.4c-0.2,2-0.7,3.9-1.7,5.6c-1,1.6-2.1,3.1-3.3,4.5c-2,2.5-4.1,5.2-4.5,8.4h0.6c0.4-3.1,2.6-5.8,4.6-8.3&#10;&#9;&#9;s4.1-5.2,4.7-8.5c0.7-3.7,0.3-7.4,2.1-10.8c1.5-2.9,3.8-5.3,5-8.4c1.4-3.6,1.5-7.7,3.7-11C105.3,233.4,104.8,233.1,104.6,233.4z"/>
	<path class="st18_spotlight-40" d="M82.2,280.5c-2.1-4.9-1-11.6,2.6-16c3.7-4.7,6-9.1,3.4-14.1c-1.5-3-2.3-6.4-2.2-9.8&#10;&#9;&#9;c-3.7,7.6-7.5,10.4-6.7,14.5c0.8,4.2-0.1,6-2.7,12.5c-2.4,6,1.5,11.8,2.1,12.7C79.9,280.4,81.1,280.5,82.2,280.5z"/>
	<path class="st11_spotlight-40" d="M80.1,280.4h0.7c-1.9-4.7-2.8-9.7-0.3-14.5c1.2-2.3,2.7-4.3,3.8-6.6c1-2.4,1.4-5,1-7.6&#10;&#9;&#9;c-0.4-3.6,0-7.2,1.1-10.6c0.1-0.4-0.4-0.5-0.6-0.2c-1,2.9-1.5,6-1.3,9.1c0.1,1.6,0.4,3.2,0.3,4.9c-0.1,1.5-0.5,3-1.2,4.3&#10;&#9;&#9;c-1.2,2.4-2.8,4.5-3.9,6.9c-1.2,2.5-1.6,5.4-1.2,8.1C78.8,276.4,79.3,278.5,80.1,280.4z"/>
</g>
</svg>