<svg version="1.1" id="Layer_1" xmlns="http://www.w3.org/2000/svg" xmlns:xlink="http://www.w3.org/1999/xlink" x="0px" y="0px" viewBox="0 0 500 500" style="width: 144px;" xml:space="preserve" data-imageid="superman-42" imageName="Superman" class="illustrations_image">
<style type="text/css">
	.st0_superman-42{fill:#F9C60B;}
	.st1_superman-42{opacity:0.74;fill:#E28B5A;enable-background:new    ;}
	.st2_superman-42{fill:#181816;}
	.st3_superman-42{fill:#68E1FD;}
	.st4_superman-42{fill:#AF2B38;}
	.st5_superman-42{fill:#7C0A1B;}
	.st6_superman-42{fill:#FBB5AD;}
	.st7_superman-42{fill:#FFFFFF;}
	.st8_superman-42{fill:#F7931E;}
	.st9_superman-42{fill:#F5B00F;}
</style>
<ellipse id="Base_superman-42" class="st0_superman-42" cx="257.6" cy="376.8" rx="188.3" ry="62.5"/>
<ellipse id="Shadow_superman-42" class="st1_superman-42" cx="245.6" cy="390" rx="75.1" ry="20.3"/>
<g id="Character_superman-42">
	<path class="st2_superman-42" d="M231.8,203.6c0,0-9.3,49.7-8.5,77s1.3,60.6,3.4,75.4c0,0,9.2,4.6,15.4-0.9c0,0,10.7-97.6,10.8-97.1&#10;&#9;&#9;c2.8,12.6,17.8,70.2,19.2,74.4s11.2,45.9,11.2,45.9s2.1,7.4,15.6-1c0,0-3.5-71.9-6.7-90.6c-2.4-14.1-13.7-76.5-20.8-83.2"/>
	<path class="st3_superman-42 targetColor" d="M270.9,207.6c0,0,16-46.5,9.5-57.1s-32.3-19-44.8-17.9s-4.4,74.5-2.5,75S253.5,220.7,270.9,207.6z" style="fill: rgb(104, 225, 253);"/>
	<path class="st4_superman-42" d="M254.6,135.5c0,0,3-9.1,11.9-6.5s72.4,8.1,86.2,17.8s-67.9,14.2-67.9,14.2L254.6,135.5z"/>
	<path class="st3_superman-42 targetColor" d="M280.4,150.5c0,0,71.2-22.9,89,10.6s10.5,86.9,35.6,97.3c0,0-70.8-23.5-94.2-50.8c0,0,15.9-20.3-19.3-37.1" style="fill: rgb(104, 225, 253);"/>
	<path class="st5_superman-42" d="M280.4,150.5c0,0,71.2-22.9,89,10.6s10.5,86.9,35.6,97.3c0,0-70.8-23.5-94.2-50.8c0,0,15.9-20.3-19.3-37.1"/>
	<path class="st3_superman-42 targetColor" d="M237.1,160.5c0,0-2.6-25.4-2.6-27.6c-7.5,2.2-14.6,5.8-20.8,10.6c-3.2,2.4-6.1,5.2-8.8,8.1&#10;&#9;&#9;c-1.7,1.9-3.6,3.7-4.5,6c-1,2.5-0.6,5.6-0.2,8.2c1,6.3,3.6,12.3,6.4,18.1c3.2,6.6,7.1,12.8,11.6,18.5c1.4,1.8,6,8.2,9,7.2&#10;&#9;&#9;c6-2.1,8.5-9.1,8.5-9.1s-2.8-5.4-5.8-12.2c-1.8-4-9.7-13-10.8-19.2c0.8-1.1,1.6-2.1,2.6-3C225.6,162.4,232.2,163.1,237.1,160.5z" style="fill: rgb(104, 225, 253);"/>
	<path class="st4_superman-42" d="M230.6,200.6v11c0,0,18.6,12.9,42,0l-1.2-8C271.4,203.6,254.8,212.1,230.6,200.6z"/>
	<path class="st3_superman-42 targetColor" d="M296.2,331.1c0,0-4.1,4.1-4.1,4.1c-2.2,0-2.9,27.6-4.9,28.6c-1.8,0.9-13.2-29.7-15-28.8l12,46.5&#10;&#9;&#9;c-2.1,5-4.8,27.1-2.2,31.1c3.2,5,10.8,5.7,15.7,2.9c3.9-2.2,4.1-6.5,3.7-10.5c-1.4-14.8-2.4-29.9-3.2-44.8&#10;&#9;&#9;C297.8,350.5,297.7,340.6,296.2,331.1z" style="fill: rgb(104, 225, 253);"/>
	<path class="st3_superman-42 targetColor" d="M246.1,318.5c0,0-6.7,1.7-6.7,1.6c-5.1,2.2-5.6,24.5-7.6,25.5c-1.8,0.9-5.6-27-7.4-26.1c0,0,2.7,39.6,0.3,43.8&#10;&#9;&#9;c-2.6,4.7-19.8,13.8-17.2,17.9c3.4,5.2,10.4,6.8,15.7,3.6c6.9-3.8,11.3-11.5,16.2-13.4c4.2-1.7,2.4-12.6,2.6-16.2&#10;&#9;&#9;C242.3,348.8,247.1,324.7,246.1,318.5z" style="fill: rgb(104, 225, 253);"/>
	<path class="st3_superman-42 targetColor" d="M290.8,160.9c-1.2-1.8-2.6-3.5-4-5.1c-3.2-3.8-6.9-6.7-10.6-10l-19.4-8c-3.5,17-7.2,34-10.9,51l27.2,4.8&#10;&#9;&#9;c2-1.2,4-2.5,5.8-4l7.4,7.5c0,0-10.6,4.9-14.8,6.6s5.9,15.6,5.9,15.6s25.7-2.9,33.5-11.6c2.2-2.4,1.4-6.2,0.7-9&#10;&#9;&#9;c-1.3-4.6-3.2-9-5.6-13.2c-3.4-6.3-7.7-12.1-11.2-18.3C293.5,165,292.2,162.9,290.8,160.9z" style="fill: rgb(104, 225, 253);"/>
	<path class="st4_superman-42" d="M239.4,132.9c-1,1.2-6.6,18-3.2,35.3s21.7,4.9,21.7,4.9s20-25.4,33.5-28.3"/>
	<path class="st6_superman-42" d="M237.1,114c0,0,0,27.1,10,28.9c10.9,1.9,17.1-10.5,17.1-10.5s1.4-24-9.5-26.1S237.4,110.5,237.1,114z"/>
	<path class="st2_superman-42" d="M238.3,117.3c-3.4-0.9-7.4-1.9-9.4-5.1c-3-4.8,0.3-9.8,4.3-12.7c4.8-3.5,10.7-4.2,16.5-3.2&#10;&#9;&#9;c7.8,1.3,18.9,4.6,21,13.4c3,12.2-8.7,27.5-8.7,27.5v-7.6c0,0,3.9-5,1.8-7s-2.9,2.7-2.9,2.7s0.9-9-5.5-10c-2.6-0.4-3.6,1.1-5.8,2.2&#10;&#9;&#9;c-1.5,0.7-3.2,1.1-4.9,0.9C242.6,118.3,240.4,117.9,238.3,117.3z"/>
	<polygon class="st7_superman-42" points="247.8,155.3 236.2,168.2 244.9,190.7 257.9,173.1 &#9;"/>
</g>
<g id="Stars_superman-42">
	<polygon class="st8_superman-42" points="117.4,209.1 124.3,204.6 137.1,212.1 134.3,219.4 &#9;"/>
	<path class="st4_superman-42" d="M126.2,243.1l4.6-14.5l-13.3-19.5c0,0,16.9,10,16.8,9.9s5.5-13.4,5.5-13.4l5.9,20.7l16.6,11.2l-13,2.9&#10;&#9;&#9;l4.7,20.5l-13.9-19.1L126.2,243.1z"/>
	<polygon class="st8_superman-42" points="145.7,226.2 162.3,237.5 169.4,233 152.6,221.7 &#9;"/>
	<polygon class="st8_superman-42" points="139.8,205.6 146.8,201.2 152.6,221.7 145.7,226.2 &#9;"/>
	<polygon class="st9_superman-42" points="149.3,240.3 154,260.8 160.8,256.3 156.8,238.7 &#9;"/>
	<polygon class="st8_superman-42" points="316.5,260.5 323.4,256 336.2,263.5 333.4,270.8 &#9;"/>
	<path class="st4_superman-42" d="M325.2,294.5l4.6-14.5l-13.3-19.5c0,0,16.9,10,16.8,9.9s5.5-13.4,5.5-13.4l5.9,20.7l16.6,11.2l-13,2.9&#10;&#9;&#9;l4.7,20.5l-13.9-19.1L325.2,294.5z"/>
	<polygon class="st8_superman-42" points="344.8,277.6 361.4,288.9 368.4,284.4 351.6,273.1 &#9;"/>
	<polygon class="st8_superman-42" points="338.9,257 345.9,252.6 351.6,273.1 344.8,277.6 &#9;"/>
	<polygon class="st9_superman-42" points="348.4,291.7 353,312.2 359.9,307.7 355.9,290.1 &#9;"/>
	<polygon class="st8_superman-42" points="278.8,76.3 282.6,73.8 289.5,77.9 288,81.9 &#9;"/>
	<path class="st4_superman-42" d="M283.6,94.8l2.5-7.9l-7.3-10.6c0,0,9.2,5.5,9.2,5.4s3-7.3,3-7.3l3.2,11.3l9,6.1l-7.1,1.6l2.6,11.2l-7.6-10.4&#10;&#9;&#9;L283.6,94.8z"/>
	<polygon class="st8_superman-42" points="294.2,85.6 303.2,91.8 307.1,89.3 298,83.1 &#9;"/>
	<polygon class="st8_superman-42" points="291,74.4 294.8,72 298,83.1 294.2,85.6 &#9;"/>
	<polygon class="st9_superman-42" points="296.1,93.3 298.7,104.5 302.4,102 300.2,92.4 &#9;"/>
</g>
</svg>